# xmcd CD database file
#
# Track frame offsets:
#	150
#	15351
#	30073
#	48256
#	61089
#	80994
#	95444
#	110664
#	130184
#	148386
#	164996
#	179839
#	201111
#	215426
#
# Disc length: 3118 seconds
#
# Revision: 0
# Processed by: cddbd v1.5.2PL0 Copyright (c) Steve Scherf et al.
# Submitted via: CDex 1.70beta2
#
DISCID=cb0c2c0e
DTITLE=Jazz and Sofa - Jazz and Sofa
DYEAR=2007
DGENRE=Jazz
TTITLE0=01-恋に落ちた時
TTITLE1=02-ティズ・オータム
TTITLE2=03-サムワン・トゥ・ウォッチ・オーヴァー・ミー
TTITLE3=04-ミスティ
TTITLE4=05-カム・レイン・オア・カム・シャイン
TTITLE5=06-アイ・リメンバー・クリフォード
TTITLE6=07-テンダリー
TTITLE7=08-セイ・イット
TTITLE8=09-ドリーム・オブ・ライブ
TTITLE9=10-エヴリシング・ハブンズ・トゥ・ミー
TTITLE10=11-煙が目にしみる
TTITLE11=12-アム・グラッド・ゼア・イズ・ユー
TTITLE12=13-ライク・サムワン・イン・ラヴ
TTITLE13=14-アイ・ジャスト・ドロップト・バイ・トゥ・セイ・ハロー
EXTD=YEAR: 2007
EXTT0=
EXTT1=
EXTT2=
EXTT3=
EXTT4=
EXTT5=
EXTT6=
EXTT7=
EXTT8=
EXTT9=
EXTT10=
EXTT11=
EXTT12=
EXTT13=
PLAYORDER=
